<?xml version="1.0" encoding="UTF-8"?>
<svg id="a" data-name="ICONS" xmlns="http://www.w3.org/2000/svg" width="20" height="20" viewBox="0 0 20 20">
  <path d="M2.75,18c-.96484,0-1.75-.78516-1.75-1.75v-2.5c0-.96484.78516-1.75,1.75-1.75s1.75.78516,1.75,1.75v2.5c0,.96484-.78516,1.75-1.75,1.75ZM2.75,13.5c-.1377,0-.25.1123-.25.25v2.5c0,.27539.5.27539.5,0v-2.5c0-.1377-.1123-.25-.25-.25Z" fill="var(--iconPrimary, #222)" stroke-width="0"/>
  <path d="M7.75,18c-.96484,0-1.75-.78516-1.75-1.75v-5.5c0-.96484.78516-1.75,1.75-1.75s1.75.78516,1.75,1.75v5.5c0,.96484-.78516,1.75-1.75,1.75ZM7.75,10.5c-.1377,0-.25.1123-.25.25v5.5c0,.27539.5.27539.5,0v-5.5c0-.1377-.1123-.25-.25-.25Z" fill="var(--iconPrimary, #222)" stroke-width="0"/>
  <path d="M17.75,18c-.96484,0-1.75-.78516-1.75-1.75v-8c0-.96484.78516-1.75,1.75-1.75s1.75.78516,1.75,1.75v8c0,.96484-.78516,1.75-1.75,1.75ZM17.75,8c-.1377,0-.25.1123-.25.25v8c0,.27539.5.27539.5,0v-8c0-.1377-.1123-.25-.25-.25Z" fill="var(--iconPrimary, #222)" stroke-width="0"/>
  <path d="M12.75,18c-.96484,0-1.75-.78516-1.75-1.75v-4.5c0-.96484.78516-1.75,1.75-1.75s1.75.78516,1.75,1.75v4.5c0,.96484-.78516,1.75-1.75,1.75ZM12.75,11.5c-.1377,0-.25.1123-.25.25v4.5c0,.27539.5.27539.5,0v-4.5c0-.1377-.1123-.25-.25-.25Z" fill="var(--iconPrimary, #222)" stroke-width="0"/>
  <path d="M1.75049,10.5c-.22266,0-.44336-.09863-.59131-.28809-.25537-.32617-.19727-.79785.12891-1.05273l5.90869-4.61914c.23535-.18359.55615-.20996.81934-.06836l4.08105,2.21094,6.18018-5.01465c.32178-.2627.79297-.21289,1.05518.10938.26074.32129.21191.79395-.10986,1.05469l-6.56934,5.33105c-.23633.19238-.56348.21973-.83008.07715l-4.08984-2.21582-5.52148,4.31641c-.13721.10742-.2998.15918-.46143.15918Z" fill="var(--iconPrimary, #222)" stroke-width="0"/>
</svg>