<svg viewBox="0 0 35 35" xmlns="http://www.w3.org/2000/svg"><path d="m24.3 18.1c-3.6 0-6.4 2.9-6.4 6.4s2.9 6.4 6.4 6.4 6.4-2.9 6.4-6.4-2.9-6.4-6.4-6.4zm3.6 7.4h-2.7v2.7c0 .5-.4.9-.9.9s-.9-.4-.9-.9v-2.7h-2.7c-.5 0-.9-.4-.9-.9s.4-.9.9-.9h2.7v-2.7c0-.5.4-.9.9-.9s.9.4.9.9v2.7h2.7c.5 0 .9.4.9.9s-.4.9-.9.9z"/><path d="m14.8 28.8h-5.8c-1.8 0-3.2-1.4-3.2-3.2v-17.9c0-1.8 1.4-3.2 3.2-3.2h13.6c1.8 0 3.2 1.4 3.2 3.2v7.1c0 .6-.5 1.1-1.1 1.1s-1.1-.5-1.1-1.1v-7.1c0-.6-.5-1.1-1.1-1.1h-13.6c-.6 0-1.1.5-1.1 1.1v17.9c0 .6.5 1.1 1.1 1.1h5.8c.6 0 1.1.5 1.1 1.1s-.5 1.1-1.1 1.1z"/><path d="m14.5 24.4s-.2 0-.3 0c-.6-.1-.9-.7-.8-1.3l.9-3.6h-3.1c-.6 0-1.2-.4-1.6-.9-.3-.6-.3-1.3 0-1.8l5.1-8.2c.5-.8 1.4-1.1 2.2-.7s1.3 1.2 1 2.1l-1 3.9h3c.6 0 1.1.5 1.1 1.1s-.5 1.1-1.1 1.1h-3.5c-.6 0-1.1-.3-1.4-.7s-.5-1-.3-1.5l.5-2.1-3.5 5.7h2.9c.6 0 1.1.3 1.4.7s.5 1 .3 1.5l-1.1 4c-.1.5-.6.8-1 .8z"/></svg>