<svg viewBox="0 0 35 35" xmlns="http://www.w3.org/2000/svg"><path d="m16.7 26.8c0 .5-.4 1-1 1h-8.1c-1.6 0-2.9-1.3-2.9-2.9v-7.1c0-1.6 1.3-2.9 2.9-2.9h13c.5 0 1 .4 1 1s-.4 1-1 1h-13c-.5 0-1 .4-1 1v4.9l2.8-2.8c1-1 2.6-1 3.6 0l3.1 3.3c.3.3.3.8 0 1.1s-.8.3-1.1 0l-3.1-3.3c-.3-.3-.9-.3-1.3 0l-3.9 3.9c0 .5.4.8.9.8h8.1c.5 0 1 .4 1 1zm-5-13.4c.5-.1.8-.7.7-1.2 0-.1 0-.3.1-.4l6.4-4.3c.2-.1.5-.2.7-.1.3 0 .5.2.6.4l5.5 8.3c.2.3.5.4.8.4s.4 0 .5-.2c.4-.3.6-.9.3-1.3l-5.5-8.3c-.4-.6-1.1-1.1-1.8-1.2-.8-.2-1.5 0-2.2.4l-6.4 4.3c-.8.5-1.2 1.6-.9 2.5.1.5.7.8 1.2.7zm5 5c-.7 0-1.3.6-1.3 1.3s.6 1.3 1.3 1.3 1.3-.6 1.3-1.3-.6-1.3-1.3-1.3z"/><path d="m24 18.1c-3.2 0-5.8 2.6-5.8 5.8s2.6 5.8 5.8 5.8 5.8-2.6 5.8-5.8-2.6-5.8-5.8-5.8zm3.2 6.6h-2.4v2.4c0 .4-.4.8-.8.8s-.8-.4-.8-.8v-2.4h-2.4c-.4 0-.8-.4-.8-.8s.4-.8.8-.8h2.4v-2.4c0-.4.4-.8.8-.8s.8.4.8.8v2.4h2.4c.4 0 .8.4.8.8s-.4.8-.8.8z"/></svg>