<svg height="18" viewBox="0 0 18 18" width="18" xmlns="http://www.w3.org/2000/svg"><path d="m0 0h18v18h-18z" fill="#ff13dc" opacity="0"/><g fill="#464646"><path d="m16 2.5a.534.534 0 0 0 -.5625-.5h-14.875a.534.534 0 0 0 -.5625.5v11a.534.534 0 0 0 .5625.5h.4375v-11h15z"/><path d="m17.5 4h-15a.5.5 0 0 0 -.5.5v11a.5.5 0 0 0 .5.5h15a.5.5 0 0 0 .5-.5v-11a.5.5 0 0 0 -.5-.5zm-.5 9.6865-2.636-2.6365a1 1 0 0 0 -1.414 0l-1.536 1.536-3.778-3.7785a1 1 0 0 0 -1.414 0l-3.222 3.222v-7.0295h14z"/><circle cx="14.5" cy="7.5" r="1.25"/></g></svg>