<svg height="18" viewBox="0 0 18 18" width="18" xmlns="http://www.w3.org/2000/svg"><path d="m0 0h18v18h-18z" fill="#ff13dc" opacity="0"/><g fill="#464646"><path d="m.75 9.75h.75a.72923.72923 0 0 0 .0745-.015 7.412 7.412 0 0 0 .843 2.765l.9325-1.3815a6.0245 6.0245 0 0 1 7.741-7.7765l1.3875-.9365a7.409 7.409 0 0 0 -2.7435-.831.72923.72923 0 0 0 .015-.0745v-.75a.75.75 0 0 0 -1.5 0v.75a.72923.72923 0 0 0 .015.0745 7.4635 7.4635 0 0 0 -6.6905 6.6905.72923.72923 0 0 0 -.0745-.015h-.75a.75.75 0 0 0 0 1.5z"/><path d="m17.25 8.25h-.75a.72923.72923 0 0 0 -.0745.015 7.414 7.414 0 0 0 -.831-2.744l-.9365 1.3875a6.0245 6.0245 0 0 1 -7.776 7.7415l-1.382.9325a7.41193 7.41193 0 0 0 2.767.843.7279.7279 0 0 0 -.017.0745v.75a.75.75 0 0 0 1.5 0v-.75a.72923.72923 0 0 0 -.015-.0745 7.4635 7.4635 0 0 0 6.6905-6.6905.72923.72923 0 0 0 .0745.015h.75a.75.75 0 0 0 0-1.5z"/><path d="m7.3535 7.8725-5.767 8.541 8.541-5.767a2.25778 2.25778 0 0 0 .6055-.6055l5.767-8.541-8.541 5.767a2.25778 2.25778 0 0 0 -.6055.6055zm1.6505 2.4865a1.363 1.363 0 1 1 1.3625-1.363 1.36343 1.36343 0 0 1 -1.3625 1.363z"/></g></svg>