<?xml version="1.0" encoding="UTF-8"?>
<svg id="a" data-name="ICONS" xmlns="http://www.w3.org/2000/svg" width="20" height="20" viewBox="0 0 20 20">
  <circle cx="10" cy="10" r="1.26" fill="var(--iconPrimary, #222)" stroke-width="0"/>
  <path d="M18.11084,9h-3.09473c-.32959,0-.62012-.21484-.7168-.53027-.4082-1.3291-1.4458-2.37402-2.7749-2.79395-.31201-.09766-.52441-.3877-.52441-.71484V1.88672c0-.22363.09961-.43555.27197-.57812.17285-.14258.39941-.2041.61914-.1582,1.75879.33594,3.33252,1.1582,4.5498,2.37695,1.24951,1.25098,2.08203,2.83594,2.40723,4.58594.04102.21875-.01807.44434-.16064.61621-.14258.1709-.35352.27051-.57666.27051ZM15.5415,7.5h1.60938c-.34961-1.09863-.95215-2.09277-1.77148-2.91211-.79492-.79688-1.77832-1.3877-2.87939-1.73828v1.58984c1.37402.58594,2.46582,1.68457,3.0415,3.06055Z" fill="var(--iconPrimary, #222)" stroke-width="0"/>
  <path d="M11.75,18.86328c-.17285,0-.34229-.05957-.47803-.17188-.17236-.14258-.27197-.35449-.27197-.57812v-3.07422c0-.32715.2124-.61719.52441-.71484,1.3291-.41992,2.3667-1.46484,2.7749-2.79395.09668-.31543.38721-.53027.7168-.53027h3.09473c.22314,0,.43408.09961.57666.27051.14258.17188.20166.39746.16064.61621-.3252,1.75-1.15771,3.33496-2.40723,4.58594-1.21729,1.21875-2.79102,2.04102-4.5498,2.37695-.04688.00879-.09424.01367-.14111.01367ZM12.5,15.56055v1.58984c1.10107-.35059,2.08447-.94141,2.87939-1.73828.81934-.81934,1.42188-1.81348,1.77148-2.91211h-1.60938c-.57568,1.37598-1.66748,2.47461-3.0415,3.06055Z" fill="var(--iconPrimary, #222)" stroke-width="0"/>
  <path d="M8.25,18.86328c-.04688,0-.09424-.00391-.14111-.01367-1.75879-.33594-3.33252-1.1582-4.5498-2.37695-1.24951-1.25098-2.08203-2.83594-2.40723-4.58594-.04102-.21875.01807-.44434.16064-.61621.14258-.1709.35352-.27051.57666-.27051h3.09473c.32959,0,.62012.21484.7168.53027.4082,1.3291,1.4458,2.37402,2.7749,2.79395.31201.09766.52441.3877.52441.71484v3.07422c0,.22363-.09961.43555-.27197.57812-.13574.1123-.30518.17188-.47803.17188ZM2.84912,12.5c.34961,1.09863.95215,2.09277,1.77148,2.91211.79492.79688,1.77832,1.3877,2.87939,1.73828v-1.58984c-1.37402-.58594-2.46582-1.68457-3.0415-3.06055h-1.60938Z" fill="var(--iconPrimary, #222)" stroke-width="0"/>
  <path d="M4.98389,9H1.88916c-.22314,0-.43408-.09961-.57666-.27051-.14258-.17188-.20166-.39746-.16064-.61621.3252-1.75,1.15771-3.33496,2.40723-4.58594,1.21729-1.21875,2.79102-2.04102,4.5498-2.37695.21777-.04199.44629.01562.61914.1582.17236.14258.27197.35449.27197.57812v3.07422c0,.32715-.2124.61719-.52441.71484-1.3291.41992-2.3667,1.46484-2.7749,2.79395-.09668.31543-.38721.53027-.7168.53027ZM2.84912,7.5h1.60938c.57568-1.37598,1.66748-2.47461,3.0415-3.06055v-1.58984c-1.10107.35059-2.08447.94141-2.87939,1.73828-.81934.81934-1.42188,1.81348-1.77148,2.91211Z" fill="var(--iconPrimary, #222)" stroke-width="0"/>
</svg>