<svg viewBox="0 0 35 35" xmlns="http://www.w3.org/2000/svg"><path d="m26 32.2h-17c-2.2 0-4-1.8-4-4v-22.4c0-2.2 1.8-4 4-4h17c2.2 0 4 1.8 4 4v22.3c0 2.2-1.8 4-4 4zm-17-27.7c-.7 0-1.3.6-1.3 1.3v22.3c0 .7.6 1.3 1.3 1.3h17c.7 0 1.3-.6 1.3-1.3v-22.3c0-.7-.6-1.3-1.3-1.3z"/><path d="m16.8 27.8c-.3 0-.6 0-.9-.2-1-.4-1.6-1.5-1.3-2.6l1.2-4.5h-3.8c-.8 0-1.6-.4-1.9-1.1s-.4-1.6 0-2.3l6.3-10.3c.6-1 1.7-1.3 2.8-.9 1 .4 1.6 1.5 1.3 2.6l-1.2 4.9h3.8c.8 0 1.6.4 2 1.2.4.7.4 1.6 0 2.3l-6.3 10c-.4.7-1.1 1.1-1.9 1.1zm-4-9.9h3.6c.7 0 1.3.3 1.8.9.4.6.6 1.3.4 1.9l-.6 2.3 4.3-6.8h-3.6c-.7 0-1.3-.3-1.8-.9-.4-.5-.6-1.2-.4-1.9l.6-2.6-4.4 7.1z"/></svg>