<?xml version="1.0" encoding="UTF-8"?>
<svg id="Layer_1" data-name="Layer 1" xmlns="http://www.w3.org/2000/svg" xmlns:xlink="http://www.w3.org/1999/xlink" version="1.1" viewBox="0 0 135 185">
  <defs>
    <style>
      .cls-1 {
        letter-spacing: 0em;
      }

      .cls-2 {
        clip-path: url(#clippath);
      }

      .cls-3 {
        fill: none;
      }

      .cls-3, .cls-4 {
        stroke-width: 0px;
      }

      .cls-5 {
        letter-spacing: 0em;
      }

      .cls-6 {
        letter-spacing: 0em;
      }

      .cls-7 {
        letter-spacing: 0em;
      }

      .cls-8 {
        letter-spacing: 0em;
      }

      .cls-9 {
        clip-path: url(#clippath-1);
      }

      .cls-4 {
        fill: #0265dc;
      }

      .cls-10 {
        letter-spacing: 0em;
      }

      .cls-11 {
        letter-spacing: 0em;
      }

      .cls-12 {
        letter-spacing: 0em;
      }

      .cls-13 {
        letter-spacing: 0em;
      }

      .cls-14 {
        letter-spacing: 0em;
      }

      .cls-15 {
        fill: #000;
        font-family: AdobeClean-Regular, 'Adobe Clean';
        font-size: 24px;
      }

      .cls-16 {
        letter-spacing: 0em;
      }

      .cls-17 {
        letter-spacing: 0em;
      }
    </style>
    <clipPath id="clippath">
      <rect class="cls-3" x="11" y="9" width="111.5" height="183.9"/>
    </clipPath>
    <clipPath id="clippath-1">
      <rect class="cls-3" x="11" y="9" width="111.5" height="183.9"/>
    </clipPath>
  </defs>
  <g id="Artwork_5" data-name="Artwork 5">
    <g class="cls-2">
      <g class="cls-9">
        <path class="cls-4" d="M25.4,98.2c-4.8,0-8.6-3.9-8.6-8.6v-13.5c0-4.8,3.9-8.6,8.6-8.6s8.6,3.9,8.6,8.6v13.5c0,4.8-3.9,8.6-8.6,8.6M25.4,73.9c-1.2,0-2.2,1-2.2,2.2v13.5c0,1.2,1,2.2,2.2,2.2s2.2-1,2.2-2.2v-13.5c0-1.2-1-2.2-2.2-2.2"/>
        <path class="cls-4" d="M52.4,98.2c-4.8,0-8.6-3.9-8.6-8.6v-29.7c0-4.8,3.9-8.6,8.6-8.6s8.6,3.9,8.6,8.6v29.7c0,4.8-3.9,8.6-8.6,8.6M52.4,57.7c-1.2,0-2.2,1-2.2,2.2v29.7c0,1.2,1,2.2,2.2,2.2s2.2-1,2.2-2.2v-29.7c0-1.2-1-2.2-2.2-2.2"/>
        <path class="cls-4" d="M106.5,98.2c-4.8,0-8.6-3.9-8.6-8.6v-43.2c0-4.8,3.9-8.6,8.6-8.6s8.6,3.9,8.6,8.6v43.2c0,4.8-3.9,8.6-8.6,8.6M106.5,44.1c-1.2,0-2.2,1-2.2,2.2v43.2c0,1.2,1,2.2,2.2,2.2s2.2-1,2.2-2.2v-43.2c0-1.2-1-2.2-2.2-2.2"/>
        <path class="cls-4" d="M79.4,98.2c-4.8,0-8.6-3.9-8.6-8.6v-24.3c0-4.8,3.9-8.6,8.6-8.6s8.6,3.9,8.6,8.6v24.3c0,4.8-3.9,8.6-8.6,8.6M79.4,63.1c-1.2,0-2.2,1-2.2,2.2v24.3c0,1.2,1,2.2,2.2,2.2s2.2-1,2.2-2.2v-24.3c0-1.2-1-2.2-2.2-2.2"/>
        <path class="cls-4" d="M20.8,60.4c-1.1,0-2.3-.5-3.1-1.4-1.5-1.7-1.3-4.3.4-5.7l31.9-27.7c1.3-1.1,3.1-1.3,4.6-.5l22.1,12,33.4-27.1c1.7-1.4,4.3-1.2,5.7.6,1.4,1.7,1.1,4.3-.6,5.7l-35.5,28.8c-1.3,1-3.1,1.2-4.5.4l-22-11.9-29.8,25.8c-.8.7-1.7,1-2.7,1"/>
      </g>
      <text class="cls-15" transform="translate(18.8 145.2)"><tspan class="cls-13" x="0" y="0">R</tspan><tspan x="13.4" y="0">e</tspan><tspan class="cls-5" x="25" y="0">p</tspan><tspan x="37.8" y="0">o</tspan><tspan class="cls-14" x="50.4" y="0">r</tspan><tspan class="cls-8" x="59.2" y="0">t</tspan><tspan class="cls-7" x="66.3" y="0">i</tspan><tspan class="cls-10" x="71.7" y="0">n</tspan><tspan x="84.1" y="0">g </tspan></text>
      <text class="cls-15" transform="translate(18.7 174)"><tspan x="0" y="0">&amp; </tspan><tspan class="cls-1" x="21.8" y="0">I</tspan><tspan class="cls-16" x="27.6" y="0">n</tspan><tspan x="40.6" y="0">s</tspan><tspan class="cls-6" x="49.6" y="0">i</tspan><tspan class="cls-12" x="54.7" y="0">g</tspan><tspan class="cls-11" x="66.5" y="0">h</tspan><tspan class="cls-17" x="79.3" y="0">t</tspan><tspan x="87" y="0">s</tspan></text>
    </g>
  </g>
</svg>