<?xml version="1.0" encoding="UTF-8"?>
<svg id="Layer_1" data-name="Layer 1" xmlns="http://www.w3.org/2000/svg" xmlns:xlink="http://www.w3.org/1999/xlink" version="1.1" viewBox="0 0 135 185">
  <defs>
    <style>
      .cls-1 {
        letter-spacing: 0em;
      }

      .cls-2 {
        clip-path: url(#clippath);
      }

      .cls-3 {
        fill: none;
      }

      .cls-3, .cls-4 {
        stroke-width: 0px;
      }

      .cls-5 {
        letter-spacing: 0em;
      }

      .cls-6 {
        letter-spacing: 0em;
      }

      .cls-7 {
        letter-spacing: 0em;
      }

      .cls-8 {
        letter-spacing: 0em;
      }

      .cls-4 {
        fill: #cd3ace;
      }

      .cls-9 {
        letter-spacing: 0em;
      }

      .cls-10 {
        clip-path: url(#clippath-1);
      }

      .cls-11 {
        letter-spacing: 0em;
      }

      .cls-12 {
        letter-spacing: 0em;
      }

      .cls-13 {
        letter-spacing: 0em;
      }

      .cls-14 {
        fill: #000;
        font-family: AdobeClean-Regular, 'Adobe Clean';
        font-size: 24px;
      }

      .cls-15 {
        letter-spacing: 0em;
      }
    </style>
    <clipPath id="clippath">
      <rect class="cls-3" x="11" y="7" width="112.8" height="189.3"/>
    </clipPath>
    <clipPath id="clippath-1">
      <rect class="cls-3" x="11" y="7" width="112.8" height="189.3"/>
    </clipPath>
  </defs>
  <g id="Artwork_4" data-name="Artwork 4">
    <g class="cls-2">
      <g class="cls-10">
        <path class="cls-4" d="M115.5,8.2c-1.2-1.2-2.9-1.5-4.5-.9L19.4,43.5c-1.5.6-2.5,2-2.6,3.6-.1,1.6.7,3.1,2.1,3.9l34.8,19.4,19.6,34.5c.7,1.3,2.1,2.1,3.6,2.1s.2,0,.3,0c1.6-.1,3-1.1,3.6-2.6L116.5,12.7c.6-1.5.2-3.3-.9-4.5M95.5,22.4l-39.5,39.7-25.3-14.2,64.8-25.6ZM76.1,93.2l-14.3-25.1,39.6-39.8-25.3,65Z"/>
      </g>
      <text class="cls-14" transform="translate(15.2 148.6)"><tspan class="cls-11" x="0" y="0">D</tspan><tspan x="15.8" y="0">el</tspan><tspan class="cls-9" x="33.1" y="0">i</tspan><tspan class="cls-5" x="38.7" y="0">v</tspan><tspan x="49.8" y="0">e</tspan><tspan class="cls-1" x="61.4" y="0">r</tspan><tspan class="cls-7" x="70.2" y="0">y &amp; </tspan></text>
      <text class="cls-14" transform="translate(17.8 177.4)"><tspan class="cls-12" x="0" y="0">A</tspan><tspan class="cls-13" x="14.1" y="0">c</tspan><tspan class="cls-9" x="24.9" y="0">t</tspan><tspan class="cls-6" x="32.1" y="0">i</tspan><tspan class="cls-15" x="37.7" y="0">v</tspan><tspan class="cls-8" x="48.5" y="0">a</tspan><tspan class="cls-9" x="59.7" y="0">t</tspan><tspan class="cls-7" x="66.9" y="0">ion</tspan></text>
    </g>
  </g>
</svg>