<?xml version="1.0" encoding="UTF-8"?>
<svg id="Layer_1" data-name="Layer 1" xmlns="http://www.w3.org/2000/svg" xmlns:xlink="http://www.w3.org/1999/xlink" version="1.1" viewBox="0 0 125 200">
  <defs>
    <style>
      .cls-1 {
        clip-path: url(#clippath);
      }

      .cls-2 {
        fill: none;
      }

      .cls-2, .cls-3, .cls-4 {
        stroke-width: 0px;
      }

      .cls-5 {
        letter-spacing: 0em;
      }

      .cls-6 {
        clip-path: url(#clippath-1);
      }

      .cls-7 {
        letter-spacing: 0em;
      }

      .cls-3, .cls-8 {
        fill: #000;
      }

      .cls-9 {
        letter-spacing: 0em;
      }

      .cls-4 {
        fill: #3892f3;
      }

      .cls-8 {
        font-family: AdobeClean-Regular, 'Adobe Clean';
        font-size: 24px;
      }
    </style>
    <clipPath id="clippath">
      <rect class="cls-2" x="6.8" y="4.2" width="111.5" height="191.6"/>
    </clipPath>
    <clipPath id="clippath-1">
      <rect class="cls-2" x="6.8" y="4.2" width="111.5" height="191.6"/>
    </clipPath>
  </defs>
  <g id="Artwork_1_" data-name="Artwork 1`">
    <g class="cls-1">
      <g class="cls-6">
        <path class="cls-4" d="M98.4,15.1h-12.5v-6.2c0-2.6-2.1-4.7-4.7-4.7s-4.7,2.1-4.7,4.7v6.2h-28.1v-6.2c0-2.6-2.1-4.7-4.7-4.7s-4.7,2.1-4.7,4.7v6.2h-12.5c-7.8,0-14.1,6.3-14.1,14.1v65.6c0,7.8,6.3,14.1,14.1,14.1h71.9c7.8,0,14.1-6.3,14.1-14.1V29.2c0-7.8-6.3-14.1-14.1-14.1M26.6,24.5h12.5v3.1c0,2.6,2.1,4.7,4.7,4.7s4.7-2.1,4.7-4.7v-3.1h28.1v3.1c0,2.6,2.1,4.7,4.7,4.7s4.7-2.1,4.7-4.7v-3.1h12.5c2.6,0,4.7,2.1,4.7,4.7v10.9H21.9v-10.9c0-2.6,2.1-4.7,4.7-4.7M98.4,99.5H26.6c-2.6,0-4.7-2.1-4.7-4.7v-45.3h81.2v45.3c0,2.6-2.1,4.7-4.7,4.7"/>
        <path class="cls-4" d="M37.5,58.9h0c3.5,0,6.2,2.8,6.2,6.2s-2.8,6.2-6.2,6.2-6.2-2.8-6.2-6.2,2.8-6.2,6.2-6.2"/>
        <path class="cls-4" d="M62.5,58.9h0c3.5,0,6.2,2.8,6.2,6.2s-2.8,6.2-6.2,6.2-6.2-2.8-6.2-6.2,2.8-6.2,6.2-6.2"/>
        <path class="cls-4" d="M87.5,58.9h0c3.5,0,6.2,2.8,6.2,6.2s-2.8,6.2-6.2,6.2-6.2-2.8-6.2-6.2,2.8-6.2,6.2-6.2"/>
        <path class="cls-4" d="M37.5,77.6h0c3.5,0,6.2,2.8,6.2,6.2s-2.8,6.2-6.2,6.2-6.2-2.8-6.2-6.2,2.8-6.2,6.2-6.2"/>
        <path class="cls-4" d="M62.5,77.6h0c3.5,0,6.2,2.8,6.2,6.2s-2.8,6.2-6.2,6.2-6.2-2.8-6.2-6.2,2.8-6.2,6.2-6.2"/>
        <path class="cls-4" d="M87.5,77.6h0c3.5,0,6.2,2.8,6.2,6.2s-2.8,6.2-6.2,6.2-6.2-2.8-6.2-6.2,2.8-6.2,6.2-6.2"/>
      </g>
      <path class="cls-3" d="M30.1,145.9h0c.3-1.3,1.1-4.6,3.2-13.4,0,0,0-.1.2-.1h1.7c.1,0,.2,0,.1.2l-4.2,15.6c0,0,0,.1-.2.1h-1.9c-.1,0-.2,0-.2-.1-.7-3-2.8-11.5-3.2-13.6h0c-.4,2.1-2.8,10.8-3.6,13.5,0,.1,0,.2-.2.2h-1.8c-.1,0-.2,0-.2-.2l-4.1-15.5c0-.1,0-.2.1-.2h1.8c.1,0,.2,0,.2.1,2.4,9.8,3,12.3,3.2,13.4h0c.3-1.3,1.1-4.2,3.5-13.4,0-.1.1-.1.2-.1h2c.1,0,.1,0,.2.1,1.1,4.4,2.3,9.4,3.2,13.4ZM46.9,142.3c0,3.6-2.3,6.1-5.5,6.1s-5.5-3.1-5.5-6.1,2.2-6.1,5.5-6.1,5.5,2.6,5.5,6ZM37.9,142.3c0,2.4,1.3,4.4,3.6,4.4s3.4-1.3,3.4-4.3-1-4.4-3.5-4.4-3.4,1.7-3.4,4.3ZM51,136.5c.1,0,.2,0,.2.2,0,.3.2,1.1.2,1.7.8-1.2,2.3-2.1,3.9-2.1s.2,0,.2.2v1.7c0,.1,0,.1-.2.1-1.7,0-3.2.8-3.8,1.8v8c0,.1,0,.1-.2.1h-1.7c-.1,0-.2,0-.2-.2v-8.3c0-1,0-2.4-.1-3.1,0,0,0-.1.1-.1h1.5ZM66.6,136.5c.1,0,.2,0,0,.2-.7.7-4.3,4.2-5.2,5.1,0,0,0,0,0,0,1.6,1.6,4.2,4.3,5.9,6.1s0,.2,0,.2h-2.3c-.1,0-.2,0-.2-.1-1.2-1.3-4.3-4.4-5.4-5.7v5.6c0,.1,0,.2-.1.2h-1.7c-.1,0-.2,0-.2-.2v-16.9c0,0,0-.1.2-.1h1.7c0,0,.1,0,.1.1v10.8c1.1-1.1,4.4-4.6,5.1-5.2,0,0,.1-.1.2-.1h1.9ZM67.8,138.2c0,0-.1,0-.1-.2v-1.4c0,0,0-.1.1-.1h1.6v-1.1c0-1.3.2-2.2.5-2.9.6-1.2,1.7-1.8,3.1-1.8s.9,0,1.1.1c0,0,.1.1.1.2v1.5c0,0,0,.1-.1.1-.3-.1-.6-.1-.9-.1-1.1,0-1.8.5-1.8,2.8v1.2h2.3c.1,0,.1,0,.1.1v1.4c0,.1,0,.1-.1.2h-2.3v9.8c0,0,0,.2-.1.2h-1.7c0,0-.1,0-.1-.2v-9.8h-1.6ZM75.5,131.1c0-.1,0-.1.2-.1h1.7c.1,0,.2,0,.2.1v14.5c0,.9.4,1.2.9,1.2s.3,0,.5,0c0,0,0,0,0,.1v1.2c0,.1,0,.1-.1.2-.2,0-.6.2-1.1.2-1.2,0-2.3-.4-2.3-2.7v-14.6ZM91.5,142.3c0,3.6-2.3,6.1-5.5,6.1s-5.5-3.1-5.5-6.1,2.2-6.1,5.5-6.1,5.5,2.6,5.5,6ZM82.5,142.3c0,2.4,1.3,4.4,3.6,4.4s3.4-1.3,3.4-4.3-1-4.4-3.5-4.4-3.4,1.7-3.4,4.3ZM103.8,148.2c-.1,0-.2,0-.2-.2-1.8-6.4-2.2-8.4-2.5-9.5h0c-.4,1.9-1.3,4.8-2.7,9.5,0,.1-.1.2-.2.2h-1.8c-.2,0-.2,0-.3-.2l-3.1-11.3c0,0,0-.2.1-.2h1.8c0,0,.1,0,.2.1,1.8,6.6,2.2,8.8,2.4,9.6h0c.2-.8.6-2.8,2.7-9.6,0-.1,0-.2.2-.2h1.9c0,0,.1,0,.2.1,1.9,7,2.3,8.7,2.5,9.6h0c.3-1.1.6-3.2,2.5-9.7,0,0,0-.1.2-.1h1.7c0,0,.1,0,.1.1l-3.4,11.4c0,0,0,.1-.2.1h-1.9Z"/>
      <text class="cls-8" transform="translate(8.9 177)"><tspan x="0" y="0">&amp; </tspan><tspan class="cls-9" x="21.8" y="0">P</tspan><tspan class="cls-5" x="34.8" y="0">l</tspan><tspan x="40.6" y="0">anni</tspan><tspan class="cls-7" x="83.1" y="0">n</tspan><tspan x="95.5" y="0">g</tspan></text>
    </g>
  </g>
</svg>