<svg viewBox="0 0 135 185" xmlns="http://www.w3.org/2000/svg" xmlns:xlink="http://www.w3.org/1999/xlink"><clipPath id="a"><path d="m11 7h112.8v189.3h-112.8z"/></clipPath><clipPath id="b"><path d="m11 7h112.8v189.3h-112.8z"/></clipPath><g clip-path="url(#a)"><g clip-path="url(#b)"><path d="m115.5 8.2c-1.2-1.2-2.9-1.5-4.5-.9l-91.6 36.2c-1.5.6-2.5 2-2.6 3.6s.7 3.1 2.1 3.9l34.8 19.4 19.6 34.5c.7 1.3 2.1 2.1 3.6 2.1s.2 0 .3 0c1.6-.1 3-1.1 3.6-2.6l35.7-91.7c.6-1.5.2-3.3-.9-4.5m-20.1 14.2-39.5 39.7-25.3-14.2 64.8-25.6zm-19.4 70.8-14.3-25.1 39.6-39.8-25.3 65z" fill="#cd3ace"/></g><g font-family="AdobeClean-Regular, 'Adobe Clean'" font-size="24"><text transform="translate(15.2 148.6)"><tspan letter-spacing="0em" x="0" y="0">D</tspan><tspan x="15.8" y="0">el</tspan><tspan letter-spacing="0em" x="33.1" y="0">i</tspan><tspan letter-spacing="0em" x="38.7" y="0">v</tspan><tspan x="49.8" y="0">e</tspan><tspan letter-spacing="0em" x="61.4" y="0">r</tspan><tspan letter-spacing="0em" x="70.2" y="0">y &amp;</tspan></text><text transform="translate(17.8 177.4)"><tspan letter-spacing="0em" x="0" y="0">A</tspan><tspan letter-spacing="0em" x="14.1" y="0">c</tspan><tspan letter-spacing="0em" x="24.9" y="0">t</tspan><tspan letter-spacing="0em" x="32.1" y="0">i</tspan><tspan letter-spacing="0em" x="37.7" y="0">v</tspan><tspan letter-spacing="0em" x="48.5" y="0">a</tspan><tspan letter-spacing="0em" x="59.7" y="0">t</tspan><tspan letter-spacing="0em" x="66.9" y="0">ion</tspan></text></g></g></svg>