<svg viewBox="0 0 135 185" xmlns="http://www.w3.org/2000/svg" xmlns:xlink="http://www.w3.org/1999/xlink"><clipPath id="a"><path d="m11 5h113.2v189.3h-113.2z"/></clipPath><clipPath id="b"><path d="m11 5h113.2v189.3h-113.2z"/></clipPath><g clip-path="url(#a)"><g clip-path="url(#b)"><path d="m97.6 105.1h-67.6c-7.3 0-13.2-5.9-13.2-13.2v-67.6c0-7.3 5.9-13.2 13.2-13.2h41.2c2.4 0 4.4 2 4.4 4.5 0 2.4-2 4.4-4.4 4.4h-41.2c-2.4 0-4.4 1.9-4.4 4.4v67.6c0 2.4 2 4.4 4.4 4.4h67.6c2.4 0 4.4-2 4.4-4.4v-36.7c0-2.4 2-4.4 4.4-4.4s4.4 2 4.4 4.4v36.7c0 7.3-5.9 13.2-13.2 13.2" fill="#de3d82"/><path d="m116.7 16.1c-.3-3.3-1.8-6.2-4.3-8.3s-5.7-3.1-8.9-2.8c-3.3.3-6.2 1.8-8.3 4.3l-28.3 33.9c-1.4.1-2.8.3-4.2.7-9 2.5-12.2 10-15 16.6-2.1 5.1-4 9.4-8 11.6-1.7.9-2.6 2.8-2.2 4.7s1.9 3.3 3.8 3.6c4 .5 8.5.9 13.1.9 9.5 0 19.2-1.7 25.3-7.1 4.2-3.8 6.3-8.8 6.2-15.1 0-.1 0-.3 0-.4 7.3-8.8 27.9-33.4 28.1-33.7 2.1-2.5 3.1-5.7 2.8-8.9zm-43 51.5c-3.9 3.5-11.8 5.1-22 4.8 1.7-2.7 3-5.7 4.2-8.5 2.7-6.3 4.5-10.2 9.2-11.5 3.4-.9 6.7-.5 9 1.3 1.8 1.4 2.9 3.4 2.9 5.5 0 3.6-1 6.3-3.3 8.3zm33.4-48.2c-.3.4-16.2 19.4-25 29.9-.8-1-1.7-1.9-2.8-2.6-.8-.6-1.7-1-2.6-1.5l25.2-30.2c.6-.7 1.4-1.1 2.3-1.2.9 0 1.8.2 2.5.8s1.1 1.4 1.2 2.3c0 .9-.2 1.8-.8 2.5" fill="#de3d82"/><text font-family="AdobeClean-Regular, 'Adobe Clean'" font-size="24" transform="translate(14.8 146.7)"><tspan x="0" y="0">C</tspan><tspan letter-spacing="0em" x="13.2" y="0">r</tspan><tspan letter-spacing="0em" x="21" y="0">e</tspan><tspan letter-spacing="0em" x="32.7" y="0">a</tspan><tspan letter-spacing="0em" x="43.9" y="0">t</tspan><tspan letter-spacing="0em" x="51.1" y="0">ion &amp;</tspan></text></g><text font-family="AdobeClean-Regular, 'Adobe Clean'" font-size="24" transform="translate(13.1 175.5)"><tspan letter-spacing="0em" x="0" y="0">P</tspan><tspan letter-spacing="0em" x="12.7" y="0">ro</tspan><tspan letter-spacing="0em" x="33.4" y="0">d</tspan><tspan x="45.8" y="0">u</tspan><tspan letter-spacing="0em" x="58.4" y="0">c</tspan><tspan letter-spacing="0em" x="69.2" y="0">t</tspan><tspan x="76.4" y="0">ion</tspan></text></g></svg>