<?xml version="1.0" encoding="UTF-8"?>
<svg id="Layer_1" data-name="Layer 1" xmlns="http://www.w3.org/2000/svg" xmlns:xlink="http://www.w3.org/1999/xlink" version="1.1" viewBox="0 0 135 185">
  <defs>
    <style>
      .cls-1 {
        letter-spacing: 0em;
      }

      .cls-2 {
        letter-spacing: 0em;
      }

      .cls-3 {
        clip-path: url(#clippath);
      }

      .cls-4 {
        fill: none;
      }

      .cls-4, .cls-5 {
        stroke-width: 0px;
      }

      .cls-6 {
        letter-spacing: 0em;
      }

      .cls-7 {
        clip-path: url(#clippath-1);
      }

      .cls-8 {
        clip-path: url(#clippath-2);
      }

      .cls-5 {
        fill: #7326d3;
      }

      .cls-9 {
        letter-spacing: 0em;
      }

      .cls-10 {
        fill: #000;
        font-family: AdobeClean-Regular, 'Adobe Clean';
        font-size: 23.4px;
      }
    </style>
    <clipPath id="clippath">
      <rect class="cls-4" x="2" y="6" width="128" height="189.8"/>
    </clipPath>
    <clipPath id="clippath-1">
      <rect class="cls-4" x="2" y="6" width="128" height="189.8"/>
    </clipPath>
    <clipPath id="clippath-2">
      <rect class="cls-4" x="2" y="6" width="128" height="189.8"/>
    </clipPath>
  </defs>
  <g id="Artwork_3" data-name="Artwork 3">
    <g class="cls-3">
      <g class="cls-7">
        <path class="cls-5" d="M64,89c0,2.1-1.7,3.7-3.8,3.7h-31.8c-6.2,0-11.3-5-11.3-11.2v-27.5c0-6.2,5.1-11.2,11.3-11.2h50.7c2.1,0,3.8,1.7,3.8,3.7s-1.7,3.7-3.8,3.7H28.4c-2.1,0-3.8,1.7-3.8,3.7v19.2l10.8-10.8c3.8-3.8,10.1-3.8,13.9,0l12.1,12.7c1.2,1.2,1.1,3.2-.1,4.4-1.3,1.2-3.2,1.1-4.4-.1l-12.1-12.7c-1.3-1.3-3.6-1.3-5,0l-15.1,15.1c.2,1.9,1.8,3.3,3.7,3.3h31.8c2.1,0,3.8,1.7,3.8,3.7M44.3,36.7c2-.6,3.1-2.7,2.6-4.6-.1-.4,0-1,.5-1.4l25.1-16.6c.8-.6,1.8-.8,2.8-.5,1,.2,1.8.8,2.4,1.6l21.5,32.4c.7,1.1,1.9,1.7,3.1,1.7s1.4-.2,2.1-.6c1.7-1.1,2.2-3.5,1.1-5.2l-21.5-32.4c-1.7-2.5-4.2-4.2-7.2-4.8-3-.6-6,0-8.5,1.6l-25.1,16.6c-3.2,2.1-4.7,6.1-3.6,9.7.6,2,2.7,3.1,4.7,2.5M63.7,56.2c-2.9,0-5.2,2.3-5.2,5.2s2.3,5.2,5.2,5.2,5.2-2.3,5.2-5.2-2.3-5.2-5.2-5.2"/>
        <path class="cls-5" d="M92.3,55.2c-12.5,0-22.5,10.1-22.5,22.5s10.1,22.5,22.5,22.5,22.5-10.1,22.5-22.5-10.1-22.5-22.5-22.5M104.8,80.9h-9.4v9.4c0,1.7-1.4,3.1-3.1,3.1s-3.1-1.4-3.1-3.1v-9.4h-9.4c-1.7,0-3.1-1.4-3.1-3.1s1.4-3.1,3.1-3.1h9.4v-9.4c0-1.7,1.4-3.1,3.1-3.1s3.1,1.4,3.1,3.1v9.4h9.4c1.7,0,3.1,1.4,3.1,3.1s-1.4,3.1-3.1,3.1"/>
      </g>
      <text class="cls-10" transform="translate(28.4 142.4)"><tspan class="cls-9" x="0" y="0">C</tspan><tspan x="12.8" y="0">ontent </tspan></text>
      <g class="cls-8">
        <text class="cls-10" transform="translate(2.6 170.4)"><tspan class="cls-2" x="0" y="0">M</tspan><tspan class="cls-1" x="19.4" y="0">an</tspan><tspan class="cls-6" x="43" y="0">a</tspan><tspan class="cls-1" x="53.6" y="0">gement</tspan></text>
      </g>
    </g>
  </g>
</svg>