<svg viewBox="0 0 135 185" xmlns="http://www.w3.org/2000/svg" xmlns:xlink="http://www.w3.org/1999/xlink"><clipPath id="a"><path d="m11 9h111.5v183.9h-111.5z"/></clipPath><clipPath id="b"><path d="m11 9h111.5v183.9h-111.5z"/></clipPath><g clip-path="url(#a)"><g clip-path="url(#b)" fill="#0265dc"><path d="m25.4 98.2c-4.8 0-8.6-3.9-8.6-8.6v-13.5c0-4.8 3.9-8.6 8.6-8.6s8.6 3.9 8.6 8.6v13.5c0 4.8-3.9 8.6-8.6 8.6m0-24.3c-1.2 0-2.2 1-2.2 2.2v13.5c0 1.2 1 2.2 2.2 2.2s2.2-1 2.2-2.2v-13.5c0-1.2-1-2.2-2.2-2.2"/><path d="m52.4 98.2c-4.8 0-8.6-3.9-8.6-8.6v-29.7c0-4.8 3.9-8.6 8.6-8.6s8.6 3.9 8.6 8.6v29.7c0 4.8-3.9 8.6-8.6 8.6m0-40.5c-1.2 0-2.2 1-2.2 2.2v29.7c0 1.2 1 2.2 2.2 2.2s2.2-1 2.2-2.2v-29.7c0-1.2-1-2.2-2.2-2.2"/><path d="m106.5 98.2c-4.8 0-8.6-3.9-8.6-8.6v-43.2c0-4.8 3.9-8.6 8.6-8.6s8.6 3.9 8.6 8.6v43.2c0 4.8-3.9 8.6-8.6 8.6m0-54.1c-1.2 0-2.2 1-2.2 2.2v43.2c0 1.2 1 2.2 2.2 2.2s2.2-1 2.2-2.2v-43.2c0-1.2-1-2.2-2.2-2.2"/><path d="m79.4 98.2c-4.8 0-8.6-3.9-8.6-8.6v-24.3c0-4.8 3.9-8.6 8.6-8.6s8.6 3.9 8.6 8.6v24.3c0 4.8-3.9 8.6-8.6 8.6m0-35.1c-1.2 0-2.2 1-2.2 2.2v24.3c0 1.2 1 2.2 2.2 2.2s2.2-1 2.2-2.2v-24.3c0-1.2-1-2.2-2.2-2.2"/><path d="m20.8 60.4c-1.1 0-2.3-.5-3.1-1.4-1.5-1.7-1.3-4.3.4-5.7l31.9-27.7c1.3-1.1 3.1-1.3 4.6-.5l22.1 12 33.4-27.1c1.7-1.4 4.3-1.2 5.7.6 1.4 1.7 1.1 4.3-.6 5.7l-35.5 28.8c-1.3 1-3.1 1.2-4.5.4l-22-11.9-29.8 25.8c-.8.7-1.7 1-2.7 1"/></g><g font-family="AdobeClean-Regular, 'Adobe Clean'" font-size="24"><text transform="translate(18.8 145.2)"><tspan letter-spacing="0em" x="0" y="0">R</tspan><tspan x="13.4" y="0">e</tspan><tspan letter-spacing="0em" x="25" y="0">p</tspan><tspan x="37.8" y="0">o</tspan><tspan letter-spacing="0em" x="50.4" y="0">r</tspan><tspan letter-spacing="0em" x="59.2" y="0">t</tspan><tspan letter-spacing="0em" x="66.3" y="0">i</tspan><tspan letter-spacing="0em" x="71.7" y="0">n</tspan><tspan x="84.1" y="0">g</tspan></text><text transform="translate(18.7 174)"><tspan x="0" y="0">&amp;</tspan><tspan letter-spacing="0em" x="21.8" y="0">I</tspan><tspan letter-spacing="0em" x="27.6" y="0">n</tspan><tspan x="40.6" y="0">s</tspan><tspan letter-spacing="0em" x="49.6" y="0">i</tspan><tspan letter-spacing="0em" x="54.7" y="0">g</tspan><tspan letter-spacing="0em" x="66.5" y="0">h</tspan><tspan letter-spacing="0em" x="79.3" y="0">t</tspan><tspan x="87" y="0">s</tspan></text></g></g></svg>