<?xml version="1.0" encoding="UTF-8"?>
<svg id="Layer_1" data-name="Layer 1" xmlns="http://www.w3.org/2000/svg" xmlns:xlink="http://www.w3.org/1999/xlink" version="1.1" viewBox="0 0 135 185">
  <defs>
    <style>
      .cls-1 {
        letter-spacing: 0em;
      }

      .cls-2 {
        letter-spacing: 0em;
      }

      .cls-3 {
        clip-path: url(#clippath);
      }

      .cls-4 {
        fill: none;
      }

      .cls-4, .cls-5 {
        stroke-width: 0px;
      }

      .cls-6 {
        letter-spacing: 0em;
      }

      .cls-7 {
        letter-spacing: 0em;
      }

      .cls-8 {
        letter-spacing: 0em;
      }

      .cls-9 {
        letter-spacing: 0em;
      }

      .cls-10 {
        letter-spacing: 0em;
      }

      .cls-11 {
        clip-path: url(#clippath-1);
      }

      .cls-12 {
        letter-spacing: 0em;
      }

      .cls-13 {
        letter-spacing: 0em;
      }

      .cls-5 {
        fill: #de3d82;
      }

      .cls-14 {
        letter-spacing: 0em;
      }

      .cls-15 {
        fill: #000;
        font-family: AdobeClean-Regular, 'Adobe Clean';
        font-size: 24px;
      }
    </style>
    <clipPath id="clippath">
      <rect class="cls-4" x="11" y="5" width="113.2" height="189.3"/>
    </clipPath>
    <clipPath id="clippath-1">
      <rect class="cls-4" x="11" y="5" width="113.2" height="189.3"/>
    </clipPath>
  </defs>
  <g id="Artwork_2" data-name="Artwork 2">
    <g class="cls-3">
      <g class="cls-11">
        <path class="cls-5" d="M97.6,105.1H30c-7.3,0-13.2-5.9-13.2-13.2V24.3c0-7.3,5.9-13.2,13.2-13.2h41.2c2.4,0,4.4,2,4.4,4.5,0,2.4-2,4.4-4.4,4.4H30c-2.4,0-4.4,1.9-4.4,4.4v67.6c0,2.4,2,4.4,4.4,4.4h67.6c2.4,0,4.4-2,4.4-4.4v-36.7c0-2.4,2-4.4,4.4-4.4s4.4,2,4.4,4.4v36.7c0,7.3-5.9,13.2-13.2,13.2"/>
        <path class="cls-5" d="M116.7,16.1c-.3-3.3-1.8-6.2-4.3-8.3-2.5-2.1-5.7-3.1-8.9-2.8-3.3.3-6.2,1.8-8.3,4.3l-28.3,33.9c-1.4.1-2.8.3-4.2.7-9,2.5-12.2,10-15,16.6-2.1,5.1-4,9.4-8,11.6-1.7.9-2.6,2.8-2.2,4.7.4,1.9,1.9,3.3,3.8,3.6,4,.5,8.5.9,13.1.9,9.5,0,19.2-1.7,25.3-7.1,4.2-3.8,6.3-8.8,6.2-15.1,0-.1,0-.3,0-.4,7.3-8.8,27.9-33.4,28.1-33.7,2.1-2.5,3.1-5.7,2.8-8.9h0ZM73.7,67.6c-3.9,3.5-11.8,5.1-22,4.8,1.7-2.7,3-5.7,4.2-8.5,2.7-6.3,4.5-10.2,9.2-11.5,3.4-.9,6.7-.5,9,1.3,1.8,1.4,2.9,3.4,2.9,5.5,0,3.6-1,6.3-3.3,8.3ZM107.1,19.4c-.3.4-16.2,19.4-25,29.9-.8-1-1.7-1.9-2.8-2.6-.8-.6-1.7-1-2.6-1.5l25.2-30.2c.6-.7,1.4-1.1,2.3-1.2.9,0,1.8.2,2.5.8.7.6,1.1,1.4,1.2,2.3,0,.9-.2,1.8-.8,2.5"/>
        <text class="cls-15" transform="translate(14.8 146.7)"><tspan x="0" y="0">C</tspan><tspan class="cls-8" x="13.2" y="0">r</tspan><tspan class="cls-6" x="21" y="0">e</tspan><tspan class="cls-10" x="32.7" y="0">a</tspan><tspan class="cls-7" x="43.9" y="0">t</tspan><tspan class="cls-1" x="51.1" y="0">ion &amp; </tspan></text>
      </g>
      <text class="cls-15" transform="translate(13.1 175.5)"><tspan class="cls-2" x="0" y="0">P</tspan><tspan class="cls-9" x="12.7" y="0">ro</tspan><tspan class="cls-12" x="33.4" y="0">d</tspan><tspan x="45.8" y="0">u</tspan><tspan class="cls-14" x="58.4" y="0">c</tspan><tspan class="cls-13" x="69.2" y="0">t</tspan><tspan x="76.4" y="0">ion</tspan></text>
    </g>
  </g>
</svg>